/* XPM */
static char *wall_texture[] = {
/* columns rows colors chars-per-pixel */
"32 32 149 2 ",
"   c #2D2D2D",
".  c #343434",
"X  c #363636",
"o  c #3F3F3F",
"O  c #404040",
"+  c #525252",
"@  c #545454",
"#  c #565656",
"$  c #5D5D5D",
"%  c #5F5F5F",
"&  c #616161",
"*  c #626262",
"=  c #636363",
"-  c #646464",
";  c #656565",
":  c #666666",
">  c #686868",
",  c #696969",
"<  c #6B6B6B",
"1  c #6D6D6D",
"2  c #6E6E6E",
"3  c #757575",
"4  c #797979",
"5  c #7C7C7C",
"6  c #7F7F7F",
"7  c #808080",
"8  c #818181",
"9  c #828282",
"0  c #838383",
"q  c #848484",
"w  c #858585",
"e  c #868686",
"r  c #898989",
"t  c #8A8A8A",
"y  c #8B8B8B",
"u  c #8C8C8C",
"i  c #8D8D8D",
"p  c #8F8F8F",
"a  c #909090",
"s  c #919191",
"d  c #929292",
"f  c #939393",
"g  c #949494",
"h  c #959595",
"j  c #969696",
"k  c #979797",
"l  c #989898",
"z  c #999999",
"x  c #9A9A9A",
"c  c #9C9C9C",
"v  c #9D9D9D",
"b  c #9E9E9E",
"n  c #9F9F9F",
"m  c #A0A0A0",
"M  c #A1A1A1",
"N  c #A2A2A2",
"B  c #A3A3A3",
"V  c #A4A4A4",
"C  c #A5A5A5",
"Z  c #A6A6A6",
"A  c #A7A7A7",
"S  c #A8A8A8",
"D  c #A9A9A9",
"F  c #AAAAAA",
"G  c #ABABAB",
"H  c #ACACAC",
"J  c #ADADAD",
"K  c #AEAEAE",
"L  c #AFAFAF",
"P  c #B0B0B0",
"I  c #B1B1B1",
"U  c #B2B2B2",
"Y  c #B3B3B3",
"T  c #B4B4B4",
"R  c #B5B5B5",
"E  c #B6B6B6",
"W  c #B7B7B7",
"Q  c #B8B8B8",
"!  c #B9B9B9",
"~  c #BABABA",
"^  c #BBBBBB",
"/  c #BCBCBC",
"(  c #BDBDBD",
")  c #BEBEBE",
"_  c #BFBFBF",
"`  c #C0C0C0",
"'  c #C1C1C1",
"]  c #C2C2C2",
"[  c #C3C3C3",
"{  c #C4C4C4",
"}  c #C5C5C5",
"|  c #C6C6C6",
" . c #C7C7C7",
".. c #C8C8C8",
"X. c #C9C9C9",
"o. c #CACACA",
"O. c #CBCBCB",
"+. c #CCCCCC",
"@. c #CDCDCD",
"#. c #CECECE",
"$. c #CFCFCF",
"%. c #D0D0D0",
"&. c #D1D1D1",
"*. c #D2D2D2",
"=. c #D3D3D3",
"-. c #D4D4D4",
";. c #D5D5D5",
":. c #D6D6D6",
">. c #D7D7D7",
",. c #D8D8D8",
"<. c #D9D9D9",
"1. c #DADADA",
"2. c #DBDBDB",
"3. c #DCDCDC",
"4. c #DDDDDD",
"5. c #DEDEDE",
"6. c #DFDFDF",
"7. c #E0E0E0",
"8. c #E1E1E1",
"9. c #E2E2E2",
"0. c #E3E3E3",
"q. c #E4E4E4",
"w. c #E5E5E5",
"e. c #E6E6E6",
"r. c #E7E7E7",
"t. c #E8E8E8",
"y. c #E9E9E9",
"u. c #EAEAEA",
"i. c #EBEBEB",
"p. c #ECECEC",
"a. c #EDEDED",
"s. c #EEEEEE",
"d. c #EFEFEF",
"f. c #F0F0F0",
"g. c #F1F1F1",
"h. c #F2F2F2",
"j. c #F3F3F3",
"k. c #F4F4F4",
"l. c #F5F5F5",
"z. c #F6F6F6",
"x. c #F7F7F7",
"c. c #F8F8F8",
"v. c #F9F9F9",
"b. c #FAFAFA",
"n. c #FBFBFB",
"m. c #FCFCFC",
"M. c #FDFDFD",
"N. c #FEFEFE",
"B. c #FFFFFF",
/* pixels */
"Q 6...H I ..;.;.6.6.6.6.6.6.6.Q I ..;.;.6.6.....| ;.6.;.....6.| ",
"6.N.u.;.6.N.N.N.N.N.N.N.g.u.u...Q ;.w.g.g.g.w...Q ;.g.w.w.w.u...",
";.g.;.6.6.N.g.u.g.g.N.g.w.u.g.| I ;.6.u.w.6...I B Q w.w.6.u.u.Q ",
"..6.Q | 6.u.6.w.g.N.N.u.w.g.N.| I ;.;.....;.Q a a B | ;.6.w.w.Q ",
"....B I ..w.6.g.N.N.N.u.u.N.N.| H ;...I I H H b a a H Q ..6.6.Q ",
"..;.H H | u.u.g.g.N.g.w.u.N.N.| I 6...Q I b I Q B b I Q ..6.6.| ",
";.u.| ..;.N.u.u.u.u.g.w.u.N.g.| | u.;...I H Q ;.I B ......6.6.Q ",
"H Q B H I ..| | | | ..| | ..| b B Q H H b u b H B b I I H I B u ",
"Q Q | | | Q I B H Q Q I | ..;...Q Q | ..;...| I I | | | | ......",
"w.u.g.g.w.6.6.....6.u.u.g.N.N.g.w.u.g.g.w.w.w.;.;.w.u.u.g.N.N.g.",
"w.w.w.6.| ..;.Q Q ;.u.u.g.N.u.u.w.w.w.6...;.6.| | 6.u.g.N.N.u.u.",
"w.w...| ;...;.I I ;.u.N.N.N.u.u.w.w...| ;...6.| Q 6.g.N.N.N.u.u.",
"w...| Q ;...6.| I ;.g.N.N.u.g.u.6...| | ;.;.w.;.Q 6.g.N.N.u.g.u.",
"..I H I I | ;.I Q 6.g.N.N.u.w.u...I H I Q ..6.| ..w.g.N.N.u.u.u.",
"..I B H H Q Q u | w.w.g.u.6.6.6...I H I I | | b ;.u.u.g.g.w.w.6.",
"- - $ 1 1 1 3 1 7 u u 7 6 7 u 7 7 u a a a a a u b H B B a 7 u 7 ",
"I 6...Q | 6.w.w.w.w.w.6.6.;.6.I B ..;.6.w.u.6.| | ;.6...| Q ;.Q ",
";.N.w.6.6.N.N.N.N.N.N.N.g.u.u.| H ;.6.g.g.u.6.| H ..u.w.6.6.u...",
"..u...;.6.N.u.u.g.N.N.u.w.u.g.| H ;.6.w.6.;.| H b H 6.6.;.w.w.Q ",
"| 6.I Q 6.u.6.u.g.N.N.u.w.g.N.| H ;...| | ..I a a b Q | ;.6.6.I ",
"| ..b H ..w.w.g.N.N.N.u.u.N.N.| I ;...I I B H b a a B I ..6.6.Q ",
"| 6.H I | u.u.g.g.g.g.w.u.N.N.| | 6.;.| I B I | H b Q Q ..6.6.| ",
"| u.| ..6.N.g.u.w.u.u.u.g.N.g.....u.;...I B I ..I B ....| ;.;.H ",
"6 a u a b B H B B H H H I I I H H Q I H B a b B b b H B b B b u ",
"..;.;.6.;...| H H | | ..;.w.u.w.;.6.w.w.w.6.;.| | ;.;.;.6.w.u.w.",
"u.u.g.u.;.;.6.| Q 6.u.u.g.N.g.u.w.w.g.u.6.6.w.;...w.u.u.g.N.g.u.",
"w.w.6.;.....;.I H ;.u.g.N.N.u.u.w.w.6.;.....6.| Q 6.u.g.N.N.u.u.",
"u.6...| 6.;.6.I H 6.g.N.N.N.g.u.w.6.| | 6.;.6.| Q ;.g.N.N.N.g.u.",
"6.| Q Q ....w.| I 6.g.N.N.u.u.u.;.| Q Q ..;.w.;.| 6.g.N.N.u.u.u.",
";.I H I Q ;.6.I | w.g.N.N.u.w.u...H H I Q ;.6.Q ;.w.g.N.N.w.w.u.",
"| I H H B H B 7 Q w.6.6.;...;...| H B H H I I a ..w.6.6.6...;...",
". o # # .   O # 1 7 7 1 $ - - - - - - - - - 1 6 7 7 1 - - - - - "
};
