/* XPM */
static char *north_txt[] = {
/* columns rows colors chars-per-pixel */
"64 64 43 1 ",
"  c #071712",
". c #0B1F1B",
"X c #1B1B1B",
"o c #0B2F23",
"O c #13372B",
"+ c #373737",
"@ c gray23",
"# c #075317",
"$ c #0B671F",
"% c #0F6B23",
"& c #137327",
"* c #17772B",
"= c #1B7F30",
"- c gray34",
"; c #5B5B5B",
": c #4B7768",
"> c #4F7B6C",
", c gray39",
"< c gray42",
"1 c #6F6F6F",
"2 c #777777",
"3 c gray50",
"4 c #1F8334",
"5 c #238B39",
"6 c #00B326",
"7 c #00BF29",
"8 c #00CB2B",
"9 c #00D72E",
"0 c #2B8F40",
"q c #57BB6C",
"w c #1FFF4F",
"e c #3FFF68",
"r c #5FFF81",
"t c #838383",
"y c #8B8B8B",
"u c #939393",
"i c #979797",
"p c #9F9F9F",
"a c #A7A7A7",
"s c gray70",
"d c #B7B7B7",
"f c gray75",
"g c gray78",
/* pixels */
"332222223222222122222222322223af332222223222222122222222322223af",
"2uyyyyiupuyyyyiupuyyyyiupuyyyusy2uyyyyiupuyyyyiupuyyyyiupuyyyusy",
"2yappuuyitappuuyitappuuyitappip<2yappuuyitappuuyitappuuyitappip<",
"2tuyy3ytu3yyy3yty3yyy3ytu3yyytu<2tuyy3ytu3yyy3yty3yyy3ytu3yyytu<",
"2tuyy3ytu3yyy3yty3yyy3ytu3yyytu<2tuyy3ytu3yyy3yty3yyy3ytu3yyytu<",
"2yytttytutytttytutytttytu3tttyu<2yytttytutytttytutytttytu3tttyu<",
"2uyyyyuupiiiiiiupiiiiiutyyyyyyu,2uyyyyuupiiiiiiupiiiiiutyyyyyyu,",
"1yytttyaittttttiuttttt113ttttyy21yytttyaittttttiuttttt113ttttyy2",
"2piuuipu3,;;;;;;;;;;;;@-uiuuuip22piuuipu3,;;;;;;;;;;;;@-uiuuuip2",
"2yt333u3:#$$$$$$$$$$$#o<iy333tu<2yt333u3:#$$$$$$$$$$$#o<iy333tu<",
"2tpiiyu3>*wwwwwwwwwww8&2itiiiyu<2tpiiyu3>*wwwwwwwwwww8&2itiiiyu<",
"2tuyytu3>=wwwwwwwwwww8&2ityyytu<2tuyytu3>=wwwwwwwwwww8&2ityyytu<",
"2tuyy3u3:&wwwwwwwwwww7&2ityyytu<2tuyy3u3:&wwwwwwwwwww7&2ityyytu<",
"2yytttu3:%999999999996%2ittttyu<2yytttu3:%999999999996%2ittttyu<",
"2uyyyyu3:&9wwwwwwwwww6%2iyyyyyu,2uyyyyu3:&9wwwwwwwwww6%2iyyyyyu,",
"2uyyyyui>=wwwwwwwwwww8*tpyyyyyu22uyyyyui>=wwwwwwwwwww8*tpyyyyyu2",
"2iiuuuiy>5eeeeeeeeeeee43piuuuii12iiuuuiy>5eeeeeeeeeeee43piuuuii1",
"2yt333u3>0rrrrrrrrrrrq42iy333tu<2yt333u3>0rrrrrrrrrrrq42iy333tu<",
"2tpiiyu3>4eeeeeeeeeeew=2itiiiyu<2tpiiyu3>4eeeeeeeeeeew=2itiiiyu<",
"2tuyytu3:*wwwwwwwwwww7&2ityyytu<2tuyytu3:*wwwwwwwwwww7&2ityyytu<",
"2tuyy3u3:%888888888886%2ityyytu<2tuyy3u3:%888888888886%2ityyytu<",
"2yytttu3-#===========&#2ittttyu<2yytttu3-#===========&#2ittttyu<",
"2uyyyyu1+ .....X......O2iyyyyyu,2uyyyyu1+ .....X......O2iyyyyyu,",
"1yytttt1,233333yt333333ppytttyy21yytttt1,233333yt333333ppytttyy2",
"2piuuuu3iaaaaaapaaaaaaapaiuuuip22piuuuu3iaaaaaapaaaaaaapaiuuuip2",
"2yt333ttiyttttyyiyttttyyiy333tu<2yt333ttiyttttyyiyttttyyiy333tu<",
"2tpiiyytu3iiiyyty3iiiyytu3iiiyu<2tpiiyytu3iiiyyty3iiiyytu3iiiyu<",
"2tuyy3ytu3yyy3yty3yyy3ytu3yyytu<2tuyy3ytu3yyy3yty3yyy3ytu3yyytu<",
"2tuyy3ytu3yyy3yty3yyy3ytu3yyytu<2tuyy3ytu3yyy3yty3yyy3ytu3yyytu<",
"2uuyyyuyiyyyyyuyiyyyyyuyiyyyyyu<2uuyyyuyiyyyyyuyiyyyyyuyiyyyyyu<",
"pdppiiiuppiiiiiuppiiiiiuppiiiii<pdppiiiuppiiiiiuppiiiiiuppiiiii<",
"gu<<<<<22<<<<<<22<<<<<<22<<<<<<3gu<<<<<22<<<<<<22<<<<<<22<<<<<<3",
"332222223222222122222222322223af332222223222222122222222322223af",
"2uyyyyiupuyyyyiupuyyyyiupuyyyusy2uyyyyiupuyyyyiupuyyyyiupuyyyusy",
"2yappuuyitappuuyitappuuyitappip<2yappuuyitappuuyitappuuyitappip<",
"2tuyy3ytu3yyy3yty3yyy3ytu3yyytu<2tuyy3ytu3yyy3yty3yyy3ytu3yyytu<",
"2tuyy3ytu3yyy3yty3yyy3ytu3yyytu<2tuyy3ytu3yyy3yty3yyy3ytu3yyytu<",
"2yytttytutytttytutytttytu3tttyu<2yytttytutytttytutytttytu3tttyu<",
"2uyyyyuupiiiiiiupiiiiiutyyyyyyu,2uyyyyuupiiiiiiupiiiiiutyyyyyyu,",
"1yytttyaittttttiuttttt113ttttyy21yytttyaittttttiuttttt113ttttyy2",
"2piuuipu3,;;;;;;;;;;;;@-uiuuuip22piuuipu3,;;;;;;;;;;;;@-uiuuuip2",
"2yt333u3:#$$$$$$$$$$$#o<iy333tu<2yt333u3:#$$$$$$$$$$$#o<iy333tu<",
"2tpiiyu3>*wwwwwwwwwww8&2itiiiyu<2tpiiyu3>*wwwwwwwwwww8&2itiiiyu<",
"2tuyytu3>=wwwwwwwwwww8&2ityyytu<2tuyytu3>=wwwwwwwwwww8&2ityyytu<",
"2tuyy3u3:&wwwwwwwwwww7&2ityyytu<2tuyy3u3:&wwwwwwwwwww7&2ityyytu<",
"2yytttu3:%999999999996%2ittttyu<2yytttu3:%999999999996%2ittttyu<",
"2uyyyyu3:&9wwwwwwwwww6%2iyyyyyu,2uyyyyu3:&9wwwwwwwwww6%2iyyyyyu,",
"2uyyyyui>=wwwwwwwwwww8*tpyyyyyu22uyyyyui>=wwwwwwwwwww8*tpyyyyyu2",
"2iiuuuiy>5eeeeeeeeeeee43piuuuii12iiuuuiy>5eeeeeeeeeeee43piuuuii1",
"2yt333u3>0rrrrrrrrrrrq42iy333tu<2yt333u3>0rrrrrrrrrrrq42iy333tu<",
"2tpiiyu3>4eeeeeeeeeeew=2itiiiyu<2tpiiyu3>4eeeeeeeeeeew=2itiiiyu<",
"2tuyytu3:*wwwwwwwwwww7&2ityyytu<2tuyytu3:*wwwwwwwwwww7&2ityyytu<",
"2tuyy3u3:%888888888886%2ityyytu<2tuyy3u3:%888888888886%2ityyytu<",
"2yytttu3-#===========&#2ittttyu<2yytttu3-#===========&#2ittttyu<",
"2uyyyyu1+ .....X......O2iyyyyyu,2uyyyyu1+ .....X......O2iyyyyyu,",
"1yytttt1,233333yt333333ppytttyy21yytttt1,233333yt333333ppytttyy2",
"2piuuuu3iaaaaaapaaaaaaapaiuuuip22piuuuu3iaaaaaapaaaaaaapaiuuuip2",
"2yt333ttiyttttyyiyttttyyiy333tu<2yt333ttiyttttyyiyttttyyiy333tu<",
"2tpiiyytu3iiiyyty3iiiyytu3iiiyu<2tpiiyytu3iiiyyty3iiiyytu3iiiyu<",
"2tuyy3ytu3yyy3yty3yyy3ytu3yyytu<2tuyy3ytu3yyy3yty3yyy3ytu3yyytu<",
"2tuyy3ytu3yyy3yty3yyy3ytu3yyytu<2tuyy3ytu3yyy3yty3yyy3ytu3yyytu<",
"2uuyyyuyiyyyyyuyiyyyyyuyiyyyyyu<2uuyyyuyiyyyyyuyiyyyyyuyiyyyyyu<",
"pdppiiiuppiiiiiuppiiiiiuppiiiii<pdppiiiuppiiiiiuppiiiiiuppiiiii<",
"gu<<<<<22<<<<<<22<<<<<<22<<<<<<3gu<<<<<22<<<<<<22<<<<<<22<<<<<<3"
};
